<svg width="167" height="70" viewBox="0 0 167 70" fill="none" xmlns="http://www.w3.org/2000/svg">
<g clip-path="url(#clip0_486_3562)">
<mask id="mask0_486_3562" style="mask-type:alpha" maskUnits="userSpaceOnUse" x="0" y="0" width="70" height="70">
<path fill-rule="evenodd" clip-rule="evenodd" d="M35 0C15.6701 0 0 15.6701 0 35C0 54.3299 15.6701 70 35 70C54.3299 70 70 54.3299 70 35C70 15.6701 54.3299 0 35 0Z" fill="white"/>
</mask>
<g mask="url(#mask0_486_3562)">
<path fill-rule="evenodd" clip-rule="evenodd" d="M35 0C15.6701 0 0 15.6701 0 35C0 54.3299 15.6701 70 35 70C54.3299 70 70 54.3299 70 35C70 15.6701 54.3299 0 35 0Z" fill="url(#paint0_linear_486_3562)"/>
</g>
<path fill-rule="evenodd" clip-rule="evenodd" d="M91.1392 40.4828H86.9575C86.7976 40.4828 86.7061 40.3918 86.7061 40.2315V31.4377C86.7061 31.1175 86.524 30.9348 86.2042 30.9348H84.7644C84.4447 30.9348 84.2617 31.1175 84.2617 31.4377V41.754C84.2617 42.3933 84.6276 42.759 85.2672 42.759H91.1392C91.459 42.759 91.6419 42.5765 91.6419 42.2562V40.9857C91.6419 40.6655 91.459 40.4828 91.1392 40.4828Z" fill="#28646E"/>
<path fill-rule="evenodd" clip-rule="evenodd" d="M152.677 35.5139H151.06C150.75 35.5139 150.572 35.6965 150.572 36.0162V39.1954V39.6287V42.2567C150.572 42.5764 150.75 42.7595 151.06 42.7595H152.677C152.987 42.7595 153.165 42.5764 153.165 42.2567V39.6287V39.1954V36.0162C153.165 35.6965 152.987 35.5139 152.677 35.5139Z" fill="#28646E"/>
<path fill-rule="evenodd" clip-rule="evenodd" d="M151.118 33.888C151.255 33.8045 151.233 33.6622 151.218 33.5508C151.148 32.9943 150.602 30.6236 150.435 30.1371C150.35 29.8933 150.199 29.8338 150.019 29.8676C149.782 29.9137 149.472 30.0683 148.987 30.3611C148.502 30.6545 148.22 30.8563 148.07 31.0453C147.956 31.1883 147.938 31.3498 148.115 31.5383C148.468 31.9122 150.311 33.5 150.77 33.8215C150.863 33.8862 150.977 33.9725 151.115 33.8897L151.118 33.888Z" fill="#28646E"/>
<path fill-rule="evenodd" clip-rule="evenodd" d="M152.546 30.7532C152.687 30.8284 152.798 30.7368 152.886 30.6668C153.417 30.2527 154.947 28.8019 155.417 28.246C155.585 28.0488 155.558 27.889 155.437 27.7513C155.277 27.5711 154.985 27.3844 154.485 27.1172C153.984 26.8507 153.667 26.7118 153.428 26.6797C153.247 26.6547 153.099 26.7217 153.027 26.9702C152.886 27.4643 152.466 29.8607 152.425 30.4201C152.416 30.5327 152.401 30.6756 152.543 30.7514L152.546 30.7532Z" fill="#28646E"/>
<path fill-rule="evenodd" clip-rule="evenodd" d="M98.0342 35.5139H96.417C96.106 35.5139 95.9286 35.6965 95.9286 36.0162V39.1954V39.6287V42.2567C95.9286 42.5764 96.106 42.7595 96.417 42.7595H98.0342C98.3444 42.7595 98.5218 42.5764 98.5218 42.2567V39.6287V39.1954V36.0162C98.5218 35.6965 98.3444 35.5139 98.0342 35.5139Z" fill="#28646E"/>
<path fill-rule="evenodd" clip-rule="evenodd" d="M96.4751 33.888C96.6119 33.8045 96.5896 33.6622 96.5753 33.5508C96.5045 32.9943 95.9588 30.6236 95.791 30.1371C95.7075 29.8933 95.5555 29.8338 95.3758 29.8676C95.1387 29.9137 94.8293 30.0683 94.344 30.3611C93.858 30.6545 93.5772 30.8563 93.4261 31.0453C93.3123 31.1883 93.2948 31.3498 93.4722 31.5383C93.8246 31.9122 95.6669 33.5 96.1267 33.8215C96.2197 33.8862 96.3343 33.9725 96.4719 33.8897L96.4751 33.888Z" fill="#28646E"/>
<path fill-rule="evenodd" clip-rule="evenodd" d="M97.9022 30.7532C98.0446 30.8284 98.1551 30.7368 98.2434 30.6668C98.7732 30.2527 100.304 28.8019 100.775 28.246C100.941 28.0488 100.915 27.889 100.794 27.7513C100.633 27.5711 100.342 27.3844 99.8415 27.1172C99.342 26.8507 99.0246 26.7118 98.7843 26.6797C98.603 26.6547 98.4558 26.7217 98.3842 26.9702C98.2426 27.4643 97.8226 29.8607 97.7813 30.4201C97.7733 30.5327 97.7582 30.6756 97.8998 30.7514L97.9022 30.7532Z" fill="#28646E"/>
<path fill-rule="evenodd" clip-rule="evenodd" d="M111.24 42.7501H109.8C109.481 42.7501 109.297 42.5676 109.297 42.2479V40.1216C109.297 39.3219 108.704 38.4766 107.629 38.4766C106.555 38.4766 105.961 39.3219 105.961 40.1216V42.2479C105.961 42.5676 105.777 42.7501 105.458 42.7501H104.018C103.698 42.7501 103.515 42.5676 103.515 42.2479V31.6516C103.515 31.3314 103.698 31.1482 104.018 31.1482H105.458C105.777 31.1482 105.961 31.3314 105.961 31.6516V36.1451C105.961 36.3276 106.098 36.4881 106.326 36.4881C106.526 36.4881 106.806 36.3049 106.966 36.0541L108.904 33.1974C109.138 32.8743 109.338 32.7174 109.658 32.7174H111.332C111.698 32.7174 111.881 33.0149 111.675 33.3339L109.503 36.2821C109.389 36.4653 109.366 36.6251 109.641 36.7616C110.783 37.3106 111.743 38.5449 111.743 40.1216V42.2479C111.743 42.5676 111.56 42.7501 111.24 42.7501Z" fill="#28646E"/>
<path fill-rule="evenodd" clip-rule="evenodd" d="M120.918 36.4844C120.918 36.6356 120.831 36.7219 120.68 36.7219H117.998C117.846 36.7219 117.759 36.6356 117.759 36.4844V36.0948C117.759 35.3376 118.321 34.5373 119.339 34.5373C120.355 34.5373 120.918 35.3376 120.918 36.0948V36.4844ZM119.339 32.4822C117.003 32.4822 115.445 34.1692 115.445 36.0948V39.2961C115.445 41.2217 117.003 42.9093 119.339 42.9093C121.467 42.9093 122.284 41.9042 122.7 41.0659C122.773 40.9189 122.83 40.5899 122.57 40.4173L121.553 39.7464C121.316 39.5954 121.056 39.6169 120.905 39.8544C120.494 40.5468 120.015 40.8536 119.339 40.8536C118.321 40.8536 117.759 40.0533 117.759 39.2961V38.9071C117.759 38.7559 117.846 38.6691 117.998 38.6691H122.28C122.887 38.6691 123.233 38.3226 123.233 37.7171V36.0948C123.233 34.1692 121.675 32.4822 119.339 32.4822Z" fill="#28646E"/>
<path fill-rule="evenodd" clip-rule="evenodd" d="M131.309 32.8945C132.303 32.8945 132.709 33.5496 133.138 34.2718C133.296 34.5208 133.567 34.543 133.816 34.3855L134.878 33.685C135.149 33.5041 135.081 33.1658 135.013 33.0071C134.584 31.9011 133.319 30.749 131.309 30.749C128.869 30.749 127.243 32.5107 127.243 34.5208V39.1373C127.243 41.147 128.869 42.9092 131.309 42.9092C133.319 42.9092 134.584 41.7571 135.013 40.6505C135.081 40.4918 135.149 40.1535 134.878 39.9727L133.816 39.2727C133.567 39.1146 133.296 39.1373 133.138 39.3858C132.709 40.108 132.303 40.7631 131.309 40.7631C130.248 40.7631 129.661 39.9278 129.661 39.1373V34.5208C129.661 33.7305 130.248 32.8945 131.309 32.8945Z" fill="#28646E"/>
<path fill-rule="evenodd" clip-rule="evenodd" d="M143.69 39.2964C143.69 40.0536 143.128 40.8539 142.111 40.8539C141.095 40.8539 140.531 40.0536 140.531 39.2964V36.2041C140.531 35.4469 141.095 34.6466 142.111 34.6466C143.128 34.6466 143.69 35.4469 143.69 36.2041V39.2964ZM142.111 32.5916C139.775 32.5916 138.217 34.2786 138.217 36.2041V39.2964C138.217 41.2219 139.775 42.9089 142.111 42.9089C144.447 42.9089 146.005 41.2219 146.005 39.2964V36.2041C146.005 34.2786 144.447 32.5916 142.111 32.5916Z" fill="#28646E"/>
<path fill-rule="evenodd" clip-rule="evenodd" d="M162.137 32.5984C161.337 32.5984 160.743 32.8043 160.149 33.1239C160.058 33.1694 159.944 33.1928 159.829 33.0324C159.738 32.8959 159.601 32.8276 159.418 32.8276H158.528C158.207 32.8276 158.024 33.0096 158.024 33.3299V42.2566C158.024 42.5763 158.207 42.7594 158.528 42.7594H159.967C160.286 42.7594 160.469 42.5763 160.469 42.2566V36.4139C160.469 35.6148 161.063 34.7696 162.137 34.7696C163.211 34.7696 163.805 35.6148 163.805 36.4139V42.2566C163.805 42.5763 163.988 42.7594 164.307 42.7594H165.746C166.067 42.7594 166.249 42.5763 166.249 42.2566V36.4139C166.249 34.3811 164.604 32.5984 162.137 32.5984Z" fill="#28646E"/>
<path fill-rule="evenodd" clip-rule="evenodd" d="M35 4.96509C18.4386 4.96509 4.96533 18.4389 4.96533 34.9998C4.96533 51.5612 18.4386 65.035 35 65.035C51.5614 65.035 65.0347 51.5612 65.0347 34.9998C65.0347 18.4389 51.5614 4.96509 35 4.96509ZM35 67.8123C16.9073 67.8123 2.1875 53.093 2.1875 34.9998C2.1875 16.9071 16.9073 2.18726 35 2.18726C53.0927 2.18726 67.8125 16.9071 67.8125 34.9998C67.8125 53.093 53.0927 67.8123 35 67.8123Z" fill="#28646E"/>
<path fill-rule="evenodd" clip-rule="evenodd" d="M32.8308 29.0059C32.5724 29.0059 32.3152 28.8986 32.1302 28.6897C31.7895 28.3029 31.8269 27.7132 32.213 27.3726C34.8485 25.0497 36.014 23.1346 36.2212 22.7736C36.9964 21.4237 38.2412 20.7249 39.5485 20.9028C40.0595 20.9728 40.417 21.4429 40.347 21.9534C40.2777 22.4638 39.8087 22.8231 39.2965 22.7519C38.534 22.6499 38.0237 23.3826 37.8393 23.7034C37.6072 24.1082 36.3028 26.2554 33.448 28.7726C33.27 28.9289 33.0502 29.0059 32.8308 29.0059Z" fill="#28646E"/>
<path fill-rule="evenodd" clip-rule="evenodd" d="M17.1223 44.8221C16.8551 44.8221 16.5891 44.7078 16.4053 44.4867C16.0752 44.0906 16.1283 43.502 16.5243 43.1719C17.4483 42.4024 19.3185 41.1967 19.9585 40.8764C20.4198 40.646 20.9798 40.8333 21.2108 41.2941C21.4413 41.7549 21.254 42.3155 20.7932 42.5465C20.3102 42.788 18.545 43.9174 17.719 44.6057C17.5446 44.7509 17.3328 44.8221 17.1223 44.8221Z" fill="#28646E"/>
<path fill-rule="evenodd" clip-rule="evenodd" d="M40.5829 35.9688C40.9539 36.3159 41.3844 36.1666 41.7793 35.7891C44.4831 33.205 47.3472 29.1683 48.2998 27.0671C48.5028 26.6191 48.9164 26.3689 49.3586 26.5474C49.8789 26.7562 49.8701 27.6505 49.4006 28.6229C48.1557 31.1948 46.418 34.0275 42.9967 37.5689C42.6677 37.9096 42.7156 38.3581 43.0119 38.6247C43.3135 38.8971 43.8041 38.8785 44.262 38.4118C46.0394 36.5994 47.2346 35.1912 48.2636 33.7434C48.5267 33.3601 48.8452 33.2131 49.1614 33.2767C49.61 33.3666 49.6817 33.7971 49.5441 34.3174C49.3218 35.1568 46.9599 38.2537 46.0266 39.2944C43.4902 42.1236 40.9539 43.6735 36.0726 46.2098C34.3698 47.0941 33.0952 47.9435 32.3223 49.2484C31.6206 50.4331 31.4106 50.8211 31.3382 50.971C31.06 51.5467 31.2816 52.2741 31.8586 52.5501C32.0196 52.6271 32.1887 52.6626 32.3544 52.6626C32.8053 52.6626 33.2335 52.3949 33.4166 51.9521C33.4231 51.937 33.3793 51.9708 34.2986 50.4186C34.742 49.6701 35.7004 48.556 37.1733 47.8846C42.0546 45.6591 44.0543 43.8992 46.8881 41.0648C48.1796 39.7727 49.9664 37.0031 50.4529 36.1841C51.8167 33.8869 51.101 31.9187 49.8701 31.5839C49.7686 31.5571 49.7185 31.4433 49.7716 31.3523C50.7247 29.7172 51.1593 28.5896 51.3384 27.7135C51.5811 26.5252 51.2445 25.0815 49.6129 24.7297C49.526 24.7111 49.4741 24.6218 49.4974 24.5355C49.6001 24.1586 49.7016 23.6832 49.771 23.3706C50.1134 21.8271 49.1375 20.4271 47.9644 20.1762C47.1396 19.9995 46.4057 20.1885 45.7641 20.6353C45.6748 20.6971 45.5552 20.6802 45.4806 20.6003C45.2274 20.3285 44.8208 20.0426 44.262 20.0327C43.2388 20.0146 42.2337 20.3285 41.4981 21.8994C40.972 23.0241 40.188 24.5314 37.8908 27.0794C35.7611 29.4425 32.7942 31.7455 30.9637 32.9477C30.6429 33.1589 30.1926 33.1093 30.2462 32.6782C30.332 31.994 31.0664 27.3938 31.1912 26.0387C31.3948 23.8372 30.2101 22.8321 28.8824 22.6531C27.7892 22.5049 26.1308 22.8205 25.2214 25.309C24.6882 26.7673 23.5776 29.1642 22.6372 33.0253C21.9757 35.7407 21.8661 38.9071 22.4716 42.5447C22.5077 42.7646 22.4669 42.9904 22.3514 43.1806C21.6269 44.3735 20.5652 45.9438 19.9731 47.3111C19.7357 47.8606 19.9346 48.5227 20.4596 48.8091C20.6364 48.9054 20.8254 48.9503 21.0109 48.9503C21.442 48.9503 21.855 48.7071 22.051 48.2911C22.401 47.5491 23.1266 46.1538 23.4107 45.5746C23.9042 44.566 24.2303 43.8998 24.3639 43.481C24.4858 43.0977 24.5576 42.655 24.3371 41.6481C23.9649 39.9524 23.8354 36.768 24.5266 33.9616C25.4436 30.2364 26.9994 26.0731 27.2765 25.3854C27.5541 24.6988 27.9491 24.4836 28.344 24.5191C28.7389 24.5553 29.4926 24.7466 29.2773 26.1461C28.89 28.662 28.344 31.8528 28.1643 32.9296C28.0768 33.457 27.9753 34.689 28.9483 35.2525C29.7078 35.6935 30.5431 35.4479 31.4666 34.8319C33.5438 33.4453 37.1249 30.6231 39.3748 28.0967C41.7356 25.4449 42.4881 23.8658 43.0953 22.4378C43.3724 21.7868 44.0823 21.7915 44.3337 21.8632C44.5846 21.935 44.8896 22.2756 44.6744 22.9937C44.1517 24.7373 41.9946 28.7308 37.843 32.4752C37.3722 32.8999 37.4387 33.4021 37.6791 33.6635C37.9048 33.9096 38.3417 34.0835 38.8241 33.6716C42.5569 30.489 44.6866 26.6845 45.6439 24.651C46.1222 23.6336 46.3031 23.0293 46.4635 22.5632C46.6665 21.9711 47.1215 21.7611 47.4382 21.8276C47.8926 21.9233 48.1919 22.39 48.0484 23.1553C47.9236 23.8215 47.5409 24.9094 47.0316 25.9909C45.8352 28.5301 43.3088 31.9281 40.5829 34.8464C40.2912 35.1586 40.2236 35.6328 40.5829 35.9688Z" fill="#28646E"/>
<path fill-rule="evenodd" clip-rule="evenodd" d="M23.7104 23.3236C23.855 23.1964 23.7984 23.0337 23.7582 22.9042C23.5569 22.2625 22.4113 19.5792 22.1114 19.0407C21.9604 18.7701 21.7696 18.7322 21.5643 18.8109C21.2936 18.9136 20.9611 19.1621 20.4501 19.6107C19.9391 20.0587 19.6498 20.3567 19.5115 20.6117C19.4071 20.8047 19.4205 20.9996 19.669 21.1839C20.1637 21.5514 22.6749 23.036 23.2851 23.3189C23.4082 23.3761 23.5628 23.4531 23.7069 23.3265L23.7104 23.3236Z" fill="#28646E"/>
<path fill-rule="evenodd" clip-rule="evenodd" d="M18.2308 24.2248C17.9211 24.2126 17.7893 24.3567 17.7496 24.5731C17.6971 24.8578 17.7368 25.2708 17.854 25.9405C17.9718 26.6107 18.0756 27.012 18.2215 27.2623C18.3323 27.4518 18.5056 27.5423 18.792 27.425C19.3631 27.1935 21.9368 25.8197 22.4956 25.4452C22.6081 25.37 22.7546 25.2783 22.7213 25.0882L22.7201 25.0847" fill="#28646E"/>
<path fill-rule="evenodd" clip-rule="evenodd" d="M44.4059 47.0654C44.214 47.0783 44.1597 47.2428 44.1137 47.3694C43.8832 48.0017 43.1629 50.8286 43.0742 51.4387C43.0299 51.7449 43.1582 51.8914 43.3687 51.9538C43.6464 52.0361 44.0617 52.0407 44.7402 51.9952C45.4186 51.9497 45.8287 51.8896 46.0935 51.7701C46.2936 51.6802 46.4015 51.5181 46.3164 51.2199C46.146 50.6273 45.0534 47.9229 44.7407 47.3274C44.6777 47.2078 44.6019 47.0526 44.41 47.0654H44.4059Z" fill="#28646E"/>
<path fill-rule="evenodd" clip-rule="evenodd" d="M46.0377 45.7552C45.9491 45.9255 46.0611 46.0574 46.1456 46.163C46.5656 46.688 48.6067 48.7722 49.0816 49.1654C49.3201 49.3632 49.5126 49.3287 49.6754 49.1812C49.8901 48.9863 50.1094 48.6352 50.4232 48.0308C50.7371 47.4277 50.8986 47.0455 50.9342 46.7585C50.9616 46.5404 50.8788 46.3637 50.5801 46.2814C49.9857 46.1192 47.1069 45.6467 46.4356 45.6047C46.3002 45.5965 46.1281 45.5802 46.0394 45.7512L46.0377 45.7552Z" fill="#28646E"/>
<path fill-rule="evenodd" clip-rule="evenodd" d="M36.0414 61.4629C36.0414 62.0375 35.5752 62.5036 35.0001 62.5036C34.4249 62.5036 33.9589 62.0375 33.9589 61.4629C33.9589 60.8878 34.4249 60.4216 35.0001 60.4216C35.5752 60.4216 36.0414 60.8878 36.0414 61.4629Z" fill="#28646E"/>
<path fill-rule="evenodd" clip-rule="evenodd" d="M36.0414 8.53701C36.0414 9.1122 35.5752 9.57826 35.0001 9.57826C34.4249 9.57826 33.9589 9.1122 33.9589 8.53701C33.9589 7.96245 34.4249 7.49634 35.0001 7.49634C35.5752 7.49634 36.0414 7.96245 36.0414 8.53701Z" fill="#28646E"/>
<path fill-rule="evenodd" clip-rule="evenodd" d="M42.8546 60.2917C43.0034 60.847 42.6738 61.4181 42.1185 61.5668C41.5631 61.715 40.9921 61.386 40.8433 60.8307C40.6946 60.2753 41.0241 59.7043 41.5795 59.555C42.1348 59.4062 42.7059 59.7363 42.8546 60.2917Z" fill="#28646E"/>
<path fill-rule="evenodd" clip-rule="evenodd" d="M29.1566 9.16911C29.3054 9.72442 28.9758 10.2956 28.4204 10.4449C27.8651 10.5931 27.2941 10.2634 27.1453 9.70811C26.9966 9.15281 27.3261 8.58167 27.8814 8.43292C28.4368 8.28417 29.0079 8.61381 29.1566 9.16911Z" fill="#28646E"/>
<path fill-rule="evenodd" clip-rule="evenodd" d="M49.133 57.3966C49.4205 57.8948 49.2502 58.5313 48.752 58.8188C48.2538 59.107 47.6175 58.9361 47.3298 58.4379C47.0423 57.9403 47.2126 57.3033 47.7108 57.0158C48.209 56.7281 48.8453 56.8985 49.133 57.3966Z" fill="#28646E"/>
<path fill-rule="evenodd" clip-rule="evenodd" d="M22.6702 11.5617C22.9577 12.0599 22.7874 12.6963 22.2892 12.9839C21.7911 13.2721 21.1541 13.1011 20.8671 12.6029C20.5795 12.1054 20.7499 11.4684 21.248 11.1808C21.7462 10.8932 22.3826 11.0636 22.6702 11.5617Z" fill="#28646E"/>
<path fill-rule="evenodd" clip-rule="evenodd" d="M54.4481 52.9756C54.8548 53.3822 54.8548 54.0414 54.4481 54.448C54.0416 54.8551 53.3824 54.8551 52.9758 54.448C52.5693 54.0414 52.5693 53.3822 52.9758 52.9756C53.3824 52.5696 54.0416 52.5696 54.4481 52.9756Z" fill="#28646E"/>
<path fill-rule="evenodd" clip-rule="evenodd" d="M17.0244 15.5517C17.4309 15.9583 17.4309 16.6175 17.0244 17.0241C16.6178 17.4307 15.9586 17.4307 15.552 17.0241C15.1454 16.6175 15.1454 15.9583 15.552 15.5517C15.9586 15.1452 16.6178 15.1452 17.0244 15.5517Z" fill="#28646E"/>
<path fill-rule="evenodd" clip-rule="evenodd" d="M58.4382 47.3296C58.9363 47.6172 59.1067 48.2536 58.819 48.7517C58.5315 49.2499 57.895 49.4202 57.3969 49.1332C56.8987 48.8457 56.7284 48.2087 57.016 47.7105C57.3035 47.2129 57.94 47.042 58.4382 47.3296Z" fill="#28646E"/>
<path fill-rule="evenodd" clip-rule="evenodd" d="M12.6032 20.8667C13.1013 21.1543 13.2717 21.7913 12.9841 22.2888C12.6965 22.787 12.0601 22.9579 11.562 22.6703C11.0638 22.3828 10.8935 21.7463 11.181 21.2476C11.4686 20.75 12.105 20.5797 12.6032 20.8667Z" fill="#28646E"/>
<path fill-rule="evenodd" clip-rule="evenodd" d="M60.8307 40.8435C61.386 40.9923 61.7156 41.5628 61.5669 42.1187C61.4181 42.674 60.847 43.0036 60.2917 42.8543C59.7364 42.7055 59.4067 42.135 59.5555 41.5797C59.7042 41.0243 60.2754 40.6942 60.8307 40.8435Z" fill="#28646E"/>
<path fill-rule="evenodd" clip-rule="evenodd" d="M9.7084 27.1455C10.2638 27.2943 10.5933 27.8648 10.4446 28.4207C10.2958 28.976 9.72479 29.3056 9.1694 29.1563C8.6141 29.0075 8.28454 28.437 8.43329 27.8817C8.58204 27.3263 9.1531 26.9962 9.7084 27.1455Z" fill="#28646E"/>
<path fill-rule="evenodd" clip-rule="evenodd" d="M61.4628 33.9585C62.038 33.9585 62.504 34.4252 62.504 34.9997C62.504 35.5749 62.038 36.041 61.4628 36.041C60.8882 36.041 60.4215 35.5749 60.4215 34.9997C60.4215 34.4252 60.8882 33.9585 61.4628 33.9585Z" fill="#28646E"/>
<path fill-rule="evenodd" clip-rule="evenodd" d="M8.53724 33.9585C9.11243 33.9585 9.57849 34.4252 9.57849 34.9997C9.57849 35.5749 9.11243 36.041 8.53724 36.041C7.96204 36.041 7.49597 35.5749 7.49597 34.9997C7.49597 34.4252 7.96204 33.9585 8.53724 33.9585Z" fill="#28646E"/>
<path fill-rule="evenodd" clip-rule="evenodd" d="M60.2917 27.1455C60.847 26.9962 61.4182 27.3263 61.5669 27.8817C61.7157 28.437 61.386 29.0075 60.8307 29.1563C60.2754 29.3056 59.7043 28.976 59.5555 28.4207C59.4062 27.8648 59.7364 27.2943 60.2917 27.1455Z" fill="#28646E"/>
<path fill-rule="evenodd" clip-rule="evenodd" d="M9.16938 40.8435C9.72477 40.6942 10.2958 41.0243 10.4446 41.5797C10.5933 42.135 10.2638 42.7055 9.70838 42.8543C9.15307 43.0036 8.58202 42.674 8.43327 42.1187C8.28388 41.5628 8.61407 40.9923 9.16938 40.8435Z" fill="#28646E"/>
<path fill-rule="evenodd" clip-rule="evenodd" d="M57.3971 20.8667C57.8953 20.5797 58.5316 20.75 58.8192 21.2476C59.1068 21.7463 58.9359 22.3828 58.4383 22.6703C57.9401 22.9579 57.3031 22.787 57.0161 22.2888C56.7286 21.7913 56.8989 21.1543 57.3971 20.8667Z" fill="#28646E"/>
<path fill-rule="evenodd" clip-rule="evenodd" d="M11.5621 47.3296C12.0603 47.042 12.6966 47.2129 12.9843 47.7105C13.2718 48.2087 13.1009 48.8457 12.6033 49.1332C12.1052 49.4202 11.4682 49.2499 11.1812 48.7517C10.8936 48.2536 11.0639 47.6172 11.5621 47.3296Z" fill="#28646E"/>
<path fill-rule="evenodd" clip-rule="evenodd" d="M52.9758 15.5517C53.3824 15.1452 54.0416 15.1452 54.4481 15.5517C54.8548 15.9583 54.8548 16.6175 54.4481 17.0241C54.0416 17.4307 53.3824 17.4307 52.9758 17.0241C52.5693 16.6175 52.5693 15.9583 52.9758 15.5517Z" fill="#28646E"/>
<path fill-rule="evenodd" clip-rule="evenodd" d="M15.5517 52.9756C15.9584 52.5696 16.6175 52.5696 17.0241 52.9756C17.4307 53.3822 17.4307 54.0414 17.0241 54.448C16.6175 54.8551 15.9584 54.8551 15.5517 54.448C15.1452 54.0414 15.1452 53.3822 15.5517 52.9756Z" fill="#28646E"/>
<path fill-rule="evenodd" clip-rule="evenodd" d="M47.3297 11.5617C47.6173 11.0636 48.2538 10.8932 48.7519 11.1808C49.2501 11.4684 49.4204 12.1054 49.1328 12.6029C48.8458 13.1011 48.2088 13.2721 47.7106 12.9839C47.2131 12.6963 47.0421 12.0599 47.3297 11.5617Z" fill="#28646E"/>
<path fill-rule="evenodd" clip-rule="evenodd" d="M20.8669 57.3966C21.1545 56.8985 21.7909 56.7281 22.2891 57.0158C22.7872 57.3033 22.9576 57.9403 22.67 58.4379C22.383 58.9361 21.746 59.107 21.2479 58.8188C20.7502 58.5313 20.5794 57.8948 20.8669 57.3966Z" fill="#28646E"/>
<path fill-rule="evenodd" clip-rule="evenodd" d="M40.8436 9.16911C40.9923 8.61381 41.5628 8.28417 42.1187 8.43292C42.6741 8.58167 43.0036 9.15281 42.8549 9.70811C42.7061 10.2634 42.1351 10.5931 41.5797 10.4449C41.0244 10.2956 40.6948 9.72442 40.8436 9.16911Z" fill="#28646E"/>
<path fill-rule="evenodd" clip-rule="evenodd" d="M27.1453 60.2917C27.2941 59.7363 27.8651 59.4062 28.4204 59.555C28.9758 59.7043 29.3054 60.2753 29.1566 60.8307C29.0079 61.386 28.4368 61.715 27.8814 61.5668C27.3261 61.4181 26.9966 60.847 27.1453 60.2917Z" fill="#28646E"/>
</g>
<defs>
<linearGradient id="paint0_linear_486_3562" x1="0" y1="70" x2="70" y2="70" gradientUnits="userSpaceOnUse">
<stop stop-color="#D1EFEF"/>
<stop offset="1" stop-color="#EFE6B3"/>
</linearGradient>
<clipPath id="clip0_486_3562">
<rect width="166.25" height="70" fill="white"/>
</clipPath>
</defs>
</svg>
