<svg width="89" height="89" viewBox="0 0 89 89" fill="none" xmlns="http://www.w3.org/2000/svg">
<mask id="mask0_2002_3114" style="mask-type:alpha" maskUnits="userSpaceOnUse" x="0" y="0" width="89" height="89">
<path fill-rule="evenodd" clip-rule="evenodd" d="M44.2578 0.396301C19.9573 0.396301 0.257812 20.0958 0.257812 44.3963C0.257812 68.6968 19.9573 88.3963 44.2578 88.3963C68.5583 88.3963 88.2578 68.6968 88.2578 44.3963C88.2578 20.0958 68.5583 0.396301 44.2578 0.396301Z" fill="white"/>
</mask>
<g mask="url(#mask0_2002_3114)">
<path fill-rule="evenodd" clip-rule="evenodd" d="M44.2578 0.396301C19.9573 0.396301 0.257812 20.0958 0.257812 44.3963C0.257812 68.6968 19.9573 88.3963 44.2578 88.3963C68.5583 88.3963 88.2578 68.6968 88.2578 44.3963C88.2578 20.0958 68.5583 0.396301 44.2578 0.396301Z" fill="url(#paint0_linear_2002_3114)"/>
</g>
<path fill-rule="evenodd" clip-rule="evenodd" d="M44.25 6.49213C23.4299 6.49213 6.49213 23.4306 6.49213 44.25C6.49213 65.07 23.4299 82.0086 44.25 82.0086C65.0701 82.0086 82.0079 65.07 82.0079 44.25C82.0079 23.4306 65.0701 6.49213 44.25 6.49213ZM44.25 85.5C21.5049 85.5 3 66.9958 3 44.25C3 21.5049 21.5049 3 44.25 3C66.9951 3 85.5 21.5049 85.5 44.25C85.5 66.9958 66.9951 85.5 44.25 85.5Z" fill="#28646E"/>
<path fill-rule="evenodd" clip-rule="evenodd" d="M41.523 36.7148C41.1982 36.7148 40.8748 36.5799 40.6423 36.3173C40.214 35.8311 40.261 35.0897 40.7464 34.6615C44.0596 31.7413 45.5248 29.3338 45.7852 28.8799C46.7598 27.1829 48.3247 26.3044 49.9681 26.5281C50.6105 26.6161 51.06 27.2071 50.972 27.8488C50.8848 28.4905 50.2952 28.9422 49.6513 28.8527C48.6928 28.7244 48.0512 29.6455 47.8194 30.0488C47.5276 30.5577 45.8878 33.2571 42.2989 36.4215C42.0752 36.618 41.7988 36.7148 41.523 36.7148Z" fill="#28646E"/>
<path fill-rule="evenodd" clip-rule="evenodd" d="M21.7752 56.5981C21.4393 56.5981 21.1049 56.4543 20.8739 56.1764C20.4589 55.6785 20.5256 54.9385 21.0235 54.5235C22.1851 53.5562 24.5362 52.0404 25.3407 51.6378C25.9207 51.3481 26.6247 51.5835 26.9151 52.1629C27.2048 52.7422 26.9694 53.4469 26.3901 53.7373C25.7829 54.0409 23.5638 55.4607 22.5254 56.326C22.3061 56.5086 22.0399 56.5981 21.7752 56.5981Z" fill="#28646E"/>
<path fill-rule="evenodd" clip-rule="evenodd" d="M51.2685 45.4684C51.7349 45.9047 52.2761 45.717 52.7726 45.2425C56.1716 41.9938 59.7723 36.9192 60.9698 34.2777C61.225 33.7145 61.7449 33.3999 62.3008 33.6243C62.9549 33.8868 62.9439 35.011 62.3536 36.2335C60.7887 39.4668 58.6041 43.0278 54.3031 47.4799C53.8895 47.9082 53.9496 48.4721 54.3221 48.8072C54.7013 49.1497 55.318 49.1262 55.8937 48.5396C58.1281 46.2611 59.6307 44.4908 60.9243 42.6707C61.2551 42.1889 61.6555 42.0041 62.0529 42.084C62.6169 42.197 62.7071 42.7382 62.534 43.3923C62.2546 44.4476 59.2853 48.3408 58.112 49.6491C54.9235 53.2058 51.7349 55.1542 45.5984 58.3428C43.4578 59.4545 41.8555 60.5222 40.8838 62.1627C40.0016 63.6521 39.7376 64.1398 39.6467 64.3282C39.2969 65.052 39.5755 65.9665 40.3008 66.3134C40.5032 66.4102 40.7159 66.4549 40.9241 66.4549C41.491 66.4549 42.0293 66.1183 42.2595 65.5617C42.2676 65.5426 42.2126 65.5852 43.3683 63.6338C43.9257 62.6929 45.1305 61.2922 46.9822 60.4482C53.1187 57.6505 55.6326 55.438 59.1951 51.8748C60.8187 50.2504 63.0649 46.7686 63.6765 45.739C65.3911 42.8511 64.4913 40.3768 62.9439 39.9559C62.8163 39.9222 62.7533 39.7792 62.82 39.6648C64.0183 37.6092 64.5646 36.1917 64.7897 35.0902C65.0948 33.5964 64.6717 31.7814 62.6205 31.3392C62.5113 31.3158 62.446 31.2036 62.4753 31.095C62.6044 30.6213 62.732 30.0236 62.8193 29.6306C63.2497 27.6902 62.0229 25.9302 60.5481 25.6148C59.5112 25.3926 58.5887 25.6302 57.782 26.192C57.6698 26.2697 57.5195 26.2484 57.4256 26.148C57.1073 25.8062 56.5962 25.4469 55.8937 25.4344C54.6074 25.4117 53.3439 25.8062 52.4191 27.7811C51.7577 29.195 50.7721 31.0899 47.8842 34.2931C45.2068 37.2638 41.4771 40.159 39.1759 41.6704C38.7725 41.9359 38.2064 41.8736 38.2739 41.3316C38.3817 40.4714 39.3049 34.6884 39.4619 32.9848C39.7178 30.2172 38.2284 28.9537 36.5593 28.7286C35.1851 28.5423 33.1002 28.939 31.9569 32.0674C31.2867 33.9008 29.8904 36.914 28.7083 41.768C27.8767 45.1816 27.7388 49.1622 28.5 53.7352C28.5455 54.0117 28.4941 54.2955 28.3489 54.5346C27.4381 56.0342 26.1035 58.0084 25.3591 59.7273C25.0607 60.4181 25.3107 61.2504 25.9707 61.6105C26.1929 61.7315 26.4305 61.788 26.6637 61.788C27.2057 61.788 27.7249 61.4822 27.9713 60.9593C28.4113 60.0265 29.3235 58.2724 29.6807 57.5442C30.3011 56.2762 30.711 55.4388 30.8789 54.9122C31.0322 54.4304 31.1224 53.8738 30.8452 52.6081C30.3773 50.4763 30.2145 46.473 31.0835 42.945C32.2363 38.2619 34.1921 33.0281 34.5405 32.1635C34.8895 31.3004 35.386 31.0298 35.8825 31.0745C36.3789 31.12 37.3264 31.3605 37.0558 33.1198C36.5689 36.2826 35.8825 40.294 35.6566 41.6477C35.5466 42.3106 35.419 43.8594 36.6422 44.5678C37.597 45.1222 38.6471 44.8135 39.808 44.0391C42.4194 42.296 46.9213 38.7481 49.7498 35.572C52.7176 32.2383 53.6636 30.2532 54.427 28.458C54.7753 27.6396 55.6678 27.6454 55.9839 27.7356C56.2992 27.8258 56.6827 28.2541 56.4121 29.1568C55.7551 31.3488 53.0432 36.3692 47.8241 41.0764C47.2323 41.6103 47.3159 42.2417 47.618 42.5702C47.9018 42.8797 48.4511 43.0982 49.0575 42.5805C53.7501 38.5794 56.4275 33.7966 57.6309 31.2402C58.2323 29.9613 58.4596 29.2016 58.6613 28.6156C58.9165 27.8713 59.4885 27.6073 59.8867 27.6909C60.4579 27.8112 60.8341 28.3978 60.6537 29.36C60.4968 30.1974 60.0157 31.5651 59.3755 32.9247C57.8715 36.1169 54.6954 40.3886 51.2685 44.0574C50.9019 44.4498 50.8168 45.046 51.2685 45.4684Z" fill="#28646E"/>
<path fill-rule="evenodd" clip-rule="evenodd" d="M30.0574 29.5713C30.2392 29.4114 30.1681 29.2068 30.1175 29.044C29.8645 28.2373 28.4242 24.864 28.0473 24.1871C27.8574 23.8469 27.6176 23.7992 27.3594 23.8982C27.0192 24.0273 26.6012 24.3397 25.9588 24.9036C25.3164 25.4668 24.9526 25.8415 24.7788 26.162C24.6476 26.4047 24.6644 26.6497 24.9768 26.8814C25.5987 27.3434 28.7557 29.2097 29.5228 29.5654C29.6775 29.6373 29.8718 29.7341 30.053 29.5749L30.0574 29.5713Z" fill="#28646E"/>
<path fill-rule="evenodd" clip-rule="evenodd" d="M23.1688 30.7043C22.7794 30.6889 22.6137 30.8701 22.5638 31.1421C22.4978 31.5 22.5477 32.0192 22.6951 32.8611C22.8432 33.7037 22.9737 34.2082 23.1571 34.5228C23.2964 34.7611 23.5142 34.8748 23.8743 34.7274C24.5922 34.4363 27.8277 32.7093 28.5302 32.2385C28.6717 32.1439 28.8558 32.0287 28.814 31.7897L28.8125 31.7853" fill="#28646E"/>
<path fill-rule="evenodd" clip-rule="evenodd" d="M56.0746 59.4182C55.8333 59.4344 55.7651 59.6412 55.7072 59.8003C55.4175 60.5952 54.5119 64.149 54.4004 64.916C54.3447 65.301 54.506 65.4851 54.7707 65.5636C55.1198 65.667 55.6419 65.6728 56.4948 65.6156C57.3477 65.5584 57.8632 65.4829 58.1961 65.3326C58.4477 65.2196 58.5833 65.0158 58.4763 64.641C58.2621 63.896 56.8886 60.4962 56.4955 59.7475C56.4163 59.5972 56.321 59.4021 56.0797 59.4182H56.0746Z" fill="#28646E"/>
<path fill-rule="evenodd" clip-rule="evenodd" d="M58.126 57.7711C58.0146 57.9852 58.1554 58.151 58.2617 58.2837C58.7897 58.9437 61.3556 61.5638 61.9526 62.0581C62.2525 62.3067 62.4945 62.2635 62.6991 62.078C62.969 61.833 63.2447 61.3915 63.6392 60.6317C64.0338 59.8735 64.2369 59.3932 64.2816 59.0324C64.3161 58.7582 64.212 58.536 63.8365 58.4326C63.0892 58.2287 59.4702 57.6346 58.6262 57.5818C58.456 57.5715 58.2397 57.5511 58.1282 57.766L58.126 57.7711Z" fill="#28646E"/>
<path fill-rule="evenodd" clip-rule="evenodd" d="M45.5592 77.518C45.5592 78.2404 44.9732 78.8263 44.2502 78.8263C43.5271 78.8263 42.9412 78.2404 42.9412 77.518C42.9412 76.795 43.5271 76.209 44.2502 76.209C44.9732 76.209 45.5592 76.795 45.5592 77.518Z" fill="#28646E"/>
<path fill-rule="evenodd" clip-rule="evenodd" d="M45.5592 10.9823C45.5592 11.7054 44.9732 12.2913 44.2502 12.2913C43.5271 12.2913 42.9412 11.7054 42.9412 10.9823C42.9412 10.26 43.5271 9.67407 44.2502 9.67407C44.9732 9.67407 45.5592 10.26 45.5592 10.9823Z" fill="#28646E"/>
<path fill-rule="evenodd" clip-rule="evenodd" d="M54.1244 76.0456C54.3114 76.7437 53.8971 77.4616 53.199 77.6486C52.5008 77.8349 51.7829 77.4213 51.5959 76.7232C51.4089 76.025 51.8232 75.3071 52.5214 75.1194C53.2195 74.9324 53.9374 75.3474 54.1244 76.0456Z" fill="#28646E"/>
<path fill-rule="evenodd" clip-rule="evenodd" d="M36.904 11.7773C37.091 12.4754 36.6767 13.1934 35.9785 13.3811C35.2804 13.5674 34.5625 13.153 34.3755 12.4549C34.1885 11.7568 34.6028 11.0388 35.3009 10.8518C35.9991 10.6648 36.717 11.0792 36.904 11.7773Z" fill="#28646E"/>
<path fill-rule="evenodd" clip-rule="evenodd" d="M62.0172 72.4061C62.3787 73.0324 62.1646 73.8325 61.5383 74.194C60.912 74.5563 60.112 74.3414 59.7504 73.7151C59.3889 73.0896 59.603 72.2888 60.2293 71.9273C60.8556 71.5657 61.6556 71.7799 62.0172 72.4061Z" fill="#28646E"/>
<path fill-rule="evenodd" clip-rule="evenodd" d="M28.7496 14.7851C29.1111 15.4114 28.897 16.2115 28.2707 16.573C27.6445 16.9353 26.8437 16.7204 26.4829 16.0941C26.1213 15.4686 26.3355 14.6678 26.9617 14.3063C27.588 13.9447 28.3881 14.1589 28.7496 14.7851Z" fill="#28646E"/>
<path fill-rule="evenodd" clip-rule="evenodd" d="M68.6991 66.8481C69.2103 67.3592 69.2103 68.1879 68.6991 68.699C68.188 69.2109 67.3593 69.2109 66.8482 68.699C66.3371 68.1879 66.3371 67.3592 66.8482 66.8481C67.3593 66.3377 68.188 66.3377 68.6991 66.8481Z" fill="#28646E"/>
<path fill-rule="evenodd" clip-rule="evenodd" d="M21.652 19.8009C22.1631 20.312 22.1631 21.1407 21.652 21.6518C21.1409 22.163 20.3122 22.163 19.8011 21.6518C19.2899 21.1407 19.2899 20.312 19.8011 19.8009C20.3122 19.2898 21.1409 19.2898 21.652 19.8009Z" fill="#28646E"/>
<path fill-rule="evenodd" clip-rule="evenodd" d="M73.7151 59.7504C74.3413 60.1119 74.5555 60.912 74.1939 61.5382C73.8324 62.1645 73.0323 62.3786 72.4061 62.0178C71.7798 61.6563 71.5657 60.8555 71.9272 60.2292C72.2887 59.6037 73.0888 59.3888 73.7151 59.7504Z" fill="#28646E"/>
<path fill-rule="evenodd" clip-rule="evenodd" d="M16.094 26.4826C16.7202 26.8441 16.9344 27.6449 16.5728 28.2704C16.2113 28.8967 15.4112 29.1116 14.785 28.75C14.1587 28.3885 13.9446 27.5884 14.3061 26.9614C14.6676 26.3359 15.4677 26.1218 16.094 26.4826Z" fill="#28646E"/>
<path fill-rule="evenodd" clip-rule="evenodd" d="M76.7229 51.5964C77.421 51.7834 77.8354 52.5006 77.6484 53.1994C77.4614 53.8976 76.7434 54.3119 76.0453 54.1242C75.3472 53.9372 74.9328 53.22 75.1198 52.5218C75.3068 51.8237 76.0248 51.4086 76.7229 51.5964Z" fill="#28646E"/>
<path fill-rule="evenodd" clip-rule="evenodd" d="M12.4548 34.3759C13.153 34.5629 13.5673 35.2801 13.3803 35.979C13.1933 36.6771 12.4754 37.0914 11.7772 36.9037C11.0791 36.7167 10.6648 35.9995 10.8518 35.3014C11.0388 34.6032 11.7567 34.1882 12.4548 34.3759Z" fill="#28646E"/>
<path fill-rule="evenodd" clip-rule="evenodd" d="M77.5175 42.941C78.2406 42.941 78.8265 43.5277 78.8265 44.25C78.8265 44.9731 78.2406 45.559 77.5175 45.559C76.7952 45.559 76.2085 44.9731 76.2085 44.25C76.2085 43.5277 76.7952 42.941 77.5175 42.941Z" fill="#28646E"/>
<path fill-rule="evenodd" clip-rule="evenodd" d="M10.9826 42.941C11.7057 42.941 12.2916 43.5277 12.2916 44.25C12.2916 44.9731 11.7057 45.559 10.9826 45.559C10.2595 45.559 9.67358 44.9731 9.67358 44.25C9.67358 43.5277 10.2595 42.941 10.9826 42.941Z" fill="#28646E"/>
<path fill-rule="evenodd" clip-rule="evenodd" d="M76.0453 34.3759C76.7434 34.1882 77.4614 34.6032 77.6484 35.3014C77.8354 35.9995 77.421 36.7167 76.7229 36.9037C76.0248 37.0914 75.3068 36.6771 75.1198 35.979C74.9321 35.2801 75.3472 34.5629 76.0453 34.3759Z" fill="#28646E"/>
<path fill-rule="evenodd" clip-rule="evenodd" d="M11.7772 51.5964C12.4754 51.4086 13.1933 51.8237 13.3803 52.5218C13.5673 53.22 13.153 53.9372 12.4548 54.1242C11.7567 54.3119 11.0388 53.8976 10.8518 53.1994C10.664 52.5006 11.0791 51.7834 11.7772 51.5964Z" fill="#28646E"/>
<path fill-rule="evenodd" clip-rule="evenodd" d="M72.4063 26.4826C73.0326 26.1218 73.8326 26.3359 74.1942 26.9614C74.5557 27.5884 74.3408 28.3885 73.7153 28.75C73.089 29.1116 72.2882 28.8967 71.9274 28.2704C71.5659 27.6449 71.78 26.8441 72.4063 26.4826Z" fill="#28646E"/>
<path fill-rule="evenodd" clip-rule="evenodd" d="M14.7852 59.7504C15.4115 59.3888 16.2115 59.6037 16.5731 60.2292C16.9346 60.8555 16.7197 61.6563 16.0942 62.0178C15.4679 62.3786 14.6671 62.1645 14.3063 61.5382C13.9448 60.912 14.1589 60.1119 14.7852 59.7504Z" fill="#28646E"/>
<path fill-rule="evenodd" clip-rule="evenodd" d="M66.8482 19.8009C67.3593 19.2898 68.188 19.2898 68.6991 19.8009C69.2103 20.312 69.2103 21.1407 68.6991 21.6518C68.188 22.163 67.3593 22.163 66.8482 21.6518C66.3371 21.1407 66.3371 20.312 66.8482 19.8009Z" fill="#28646E"/>
<path fill-rule="evenodd" clip-rule="evenodd" d="M19.8008 66.8481C20.312 66.3377 21.1406 66.3377 21.6518 66.8481C22.1629 67.3592 22.1629 68.1879 21.6518 68.699C21.1406 69.2109 20.312 69.2109 19.8008 68.699C19.2897 68.1879 19.2897 67.3592 19.8008 66.8481Z" fill="#28646E"/>
<path fill-rule="evenodd" clip-rule="evenodd" d="M59.7503 14.7851C60.1118 14.1589 60.9119 13.9447 61.5381 14.3063C62.1644 14.6678 62.3785 15.4686 62.017 16.0941C61.6562 16.7204 60.8554 16.9353 60.2291 16.573C59.6036 16.2115 59.3887 15.4114 59.7503 14.7851Z" fill="#28646E"/>
<path fill-rule="evenodd" clip-rule="evenodd" d="M26.4827 72.4061C26.8442 71.7799 27.6443 71.5657 28.2706 71.9273C28.8968 72.2888 29.111 73.0896 28.7494 73.7151C28.3886 74.3414 27.5878 74.5563 26.9616 74.194C26.336 73.8325 26.1212 73.0324 26.4827 72.4061Z" fill="#28646E"/>
<path fill-rule="evenodd" clip-rule="evenodd" d="M51.5962 11.7773C51.7832 11.0792 52.5004 10.6648 53.1992 10.8518C53.8974 11.0388 54.3117 11.7568 54.1247 12.4549C53.9377 13.153 53.2198 13.5674 52.5216 13.3811C51.8235 13.1934 51.4092 12.4754 51.5962 11.7773Z" fill="#28646E"/>
<path fill-rule="evenodd" clip-rule="evenodd" d="M34.3755 76.0456C34.5625 75.3474 35.2804 74.9324 35.9785 75.1194C36.6767 75.3071 37.091 76.025 36.904 76.7232C36.717 77.4213 35.9991 77.8349 35.3009 77.6486C34.6028 77.4616 34.1885 76.7437 34.3755 76.0456Z" fill="#28646E"/>
<defs>
<linearGradient id="paint0_linear_2002_3114" x1="0.257812" y1="88.3963" x2="88.2578" y2="88.3963" gradientUnits="userSpaceOnUse">
<stop stop-color="#D1EFEF"/>
<stop offset="1" stop-color="#EFE6B3"/>
</linearGradient>
</defs>
</svg>
